<?xml version="1.0" standalone="no"?>
<!DOCTYPE svg PUBLIC "-//W3C//DTD SVG 20010904//EN"
 "http://www.w3.org/TR/2001/REC-SVG-20010904/DTD/svg10.dtd">
<svg version="1.0" xmlns="http://www.w3.org/2000/svg"
 width="72.000000pt" height="131.000000pt" viewBox="0 0 72.000000 131.000000"
 preserveAspectRatio="xMidYMid meet">
<metadata>
Created by potrace 1.16, written by Peter Selinger 2001-2019
</metadata>
<g transform="translate(0.000000,131.000000) scale(0.100000,-0.100000)"
fill="#000000" stroke="none">
<path d="M1 1203 c1 -80 3 -99 9 -73 14 57 85 102 222 140 77 21 172 26 210
11 13 -5 48 -17 78 -26 184 -54 188 -70 145 -525 -27 -289 -35 -405 -35 -481
0 -68 -3 -79 -31 -117 -35 -48 -79 -73 -156 -92 -70 -16 -144 -6 -219 31 -62
31 -94 72 -94 121 0 29 -26 167 -49 258 -23 90 -29 124 -42 255 -5 55 -16 132
-23 170 -13 64 -14 28 -15 -402 l-1 -473 360 0 360 0 0 655 0 655 -360 0 -360
0 1 -107z"/>
<path d="M250 1249 c-163 -44 -208 -77 -221 -161 -9 -58 0 -77 55 -105 50 -26
288 -13 391 21 44 14 94 35 112 45 39 24 67 75 59 106 -7 27 -69 59 -165 83
-36 9 -67 20 -69 25 -6 13 -85 6 -162 -14z"/>
<path d="M616 1044 c-52 -45 -171 -82 -306 -95 -119 -12 -214 -5 -248 17 -29
19 -37 13 -23 -14 8 -15 8 -21 0 -24 -8 -3 -7 -26 5 -81 8 -43 20 -128 26
-190 6 -62 19 -146 30 -187 22 -85 39 -169 50 -251 10 -75 23 -95 79 -123 61
-32 150 -42 227 -26 49 10 66 20 100 55 47 49 39 2 70 420 8 110 19 252 25
315 5 63 8 138 7 166 l-3 52 -39 -34z m-176 -379 c21 -23 25 -38 28 -105 4
-69 2 -80 -17 -99 -30 -30 -90 -28 -142 4 -58 37 -66 63 -45 131 19 61 38 82
88 99 38 13 53 8 88 -30z"/>
</g>
</svg>
